<?xml version="1.0" standalone="no"?>
<!DOCTYPE svg PUBLIC "-//W3C//DTD SVG 20010904//EN"
 "http://www.w3.org/TR/2001/REC-SVG-20010904/DTD/svg10.dtd">
<svg version="1.0" xmlns="http://www.w3.org/2000/svg"
 width="128.000000pt" height="128.000000pt" viewBox="0 0 128.000000 128.000000"
 preserveAspectRatio="xMidYMid meet">
<metadata>
Created by potrace 1.14, written by Peter Selinger 2001-2017
</metadata>
<g transform="translate(0.000000,128.000000) scale(0.100000,-0.100000)"
fill="#000000" stroke="none">
<path d="M383 1260 c-54 -33 -76 -95 -53 -154 7 -18 5 -35 -5 -60 -17 -41 -20
-138 -4 -167 8 -16 7 -26 -5 -44 -9 -14 -16 -35 -16 -48 0 -19 -8 -26 -38 -35
-45 -14 -76 -45 -126 -129 -20 -34 -45 -64 -55 -68 -9 -3 -31 -19 -47 -36 -24
-25 -29 -39 -29 -79 0 -31 6 -54 17 -67 16 -17 16 -20 -2 -43 -23 -29 -27
-133 -8 -175 24 -53 38 -24 32 68 -3 50 0 70 12 82 14 13 84 15 584 15 491 0
571 -2 583 -15 20 -20 17 -132 -4 -146 -8 -5 -186 -9 -400 -9 -374 0 -387 -1
-392 -19 -3 -11 0 -21 7 -23 6 -2 184 -3 396 -2 282 1 392 4 408 13 31 16 42
50 42 126 0 51 -4 68 -20 83 -20 18 -20 18 0 57 11 22 20 50 20 63 0 42 -31
93 -67 110 -20 9 -46 36 -65 66 -69 112 -107 136 -223 145 l-80 6 -7 49 c-5
37 -3 52 7 60 28 22 34 60 16 102 -21 47 -43 67 -77 68 -16 1 -31 13 -44 34
-25 40 -93 90 -136 98 -22 4 -40 17 -56 40 -37 55 -107 69 -165 34z m119 -47
c20 -20 20 -20 -19 -27 -21 -4 -55 -21 -75 -37 -38 -30 -42 -29 -40 20 3 62
88 90 134 44z m38 -92 c-7 -25 -5 -30 12 -34 15 -4 22 1 30 24 11 32 44 37 42
6 -2 -16 13 -22 43 -18 16 2 46 -43 78 -119 61 -146 70 -235 33 -310 l-23 -45
-81 -5 c-45 -3 -94 -3 -108 0 -46 9 -111 85 -165 193 -49 97 -61 137 -42 137
14 0 18 33 7 52 -14 23 1 35 25 20 11 -7 24 -10 29 -7 17 10 11 34 -11 46
l-21 11 23 24 c17 18 25 21 36 13 7 -6 13 -17 13 -25 0 -20 19 -27 35 -14 13
10 13 16 0 40 -16 31 -10 38 32 39 19 1 21 -2 13 -28z m269 -124 c15 -19 26
-77 14 -77 -5 0 -15 17 -23 38 -8 20 -16 40 -18 45 -6 12 15 8 27 -6z m-414
-275 c-8 -9 -35 14 -45 38 -20 48 0 55 25 8 13 -24 22 -44 20 -46z m623 -16
c38 -20 113 -118 100 -131 -2 -2 -42 -7 -88 -10 -47 -3 -94 -7 -105 -9 -11 -2
-40 12 -64 31 -24 18 -47 33 -51 33 -4 0 1 17 11 37 10 21 19 44 19 53 0 14
12 16 73 14 44 -1 86 -8 105 -18z m-678 -7 c15 -12 41 -21 57 -21 34 0 108
-67 76 -69 -10 -1 -27 -3 -38 -4 -43 -5 -153 -16 -204 -21 -30 -3 -58 -7 -63
-10 -14 -9 -9 5 24 57 29 48 78 89 106 89 7 0 26 -10 42 -21z m482 -137 c14
-14 7 -17 -97 -32 -44 -6 -93 -14 -110 -16 -16 -3 -122 -39 -234 -80 -166 -61
-211 -74 -247 -70 -70 6 -103 48 -83 104 15 44 73 64 219 77 41 4 89 9 105 11
17 2 66 7 110 10 44 4 81 7 83 9 10 8 244 -3 254 -13z m387 -53 c12 -13 21
-25 22 -28 0 -3 2 -15 4 -25 5 -28 -22 -75 -50 -86 -26 -10 -116 -6 -325 15
-19 2 -73 7 -120 10 -47 4 -93 9 -102 10 -9 2 -47 -7 -85 -19 -68 -24 -229
-34 -217 -15 3 5 10 9 16 9 6 0 63 20 127 44 64 24 139 47 166 51 28 3 93 13
145 21 52 8 131 17 175 20 44 4 81 8 83 9 1 1 33 3 71 4 60 2 72 -1 90 -20z"/>
<path d="M640 982 c-33 -16 -55 -46 -45 -62 8 -13 35 -13 35 0 0 13 52 37 71
33 10 -3 19 4 22 17 3 11 2 21 -1 21 -33 7 -55 4 -82 -9z"/>
<path d="M661 909 c-30 -18 -32 -22 -19 -35 14 -15 30 -11 96 22 1 1 0 9 -4
18 -8 22 -32 20 -73 -5z"/>
<path d="M456 895 c-28 -15 -55 -42 -56 -57 0 -16 37 -13 56 4 12 11 34 20 50
22 21 2 30 9 32 25 3 17 -2 21 -25 21 -15 0 -41 -7 -57 -15z"/>
<path d="M572 881 c-11 -6 -7 -20 14 -64 27 -54 45 -69 59 -48 6 11 -42 121
-53 121 -4 0 -13 -4 -20 -9z"/>
<path d="M487 827 c-43 -20 -47 -24 -35 -40 12 -16 15 -16 54 3 33 16 41 25
37 41 -3 10 -6 19 -7 19 0 0 -23 -10 -49 -23z"/>
<path d="M647 734 c-15 -8 -32 -12 -37 -9 -6 3 -10 -5 -10 -19 0 -30 15 -33
65 -12 37 16 43 27 23 44 -9 7 -21 6 -41 -4z"/>
<path d="M182 250 c-17 -16 -37 -30 -45 -30 -8 0 -21 -8 -29 -17 -25 -30 -28
-61 -7 -87 10 -13 19 -36 19 -50 0 -48 75 -87 107 -55 8 8 17 8 31 0 11 -6 30
-11 41 -11 26 0 63 48 55 72 -3 12 1 27 11 38 34 37 10 110 -36 110 -10 0 -31
14 -47 30 -17 17 -39 30 -50 30 -11 0 -34 -13 -50 -30z m71 -28 c6 -8 -31 -57
-37 -51 -5 5 -9 30 -7 47 1 13 37 17 44 4z m-79 -64 c21 -30 20 -38 -6 -33
-29 6 -42 20 -35 39 9 22 23 20 41 -6z m164 -2 c4 -16 0 -18 -29 -12 -40 8
-48 14 -29 27 23 14 54 6 58 -15z m-30 -89 c-5 -35 -33 -27 -36 11 -3 31 -2
33 18 22 14 -7 20 -19 18 -33z m-78 15 c0 -5 -9 -17 -20 -27 -19 -17 -22 -17
-37 -2 -15 15 -15 17 8 26 31 12 49 13 49 3z"/>
</g>
</svg>
